<svg width="200" height="200" viewBox="0 0 200 200" fill="none" xmlns="http://www.w3.org/2000/svg">
<path fill-rule="evenodd" clip-rule="evenodd" d="M100.083 0C44.7396 0 0 45.0694 0 100.826C0 145.396 28.6662 183.123 68.4338 196.476C73.4058 197.48 75.227 194.306 75.227 191.637C75.227 189.3 75.0631 181.288 75.0631 172.939C47.2225 178.95 41.4249 160.92 41.4249 160.92C36.9508 149.235 30.3215 146.232 30.3215 146.232C21.2092 140.055 30.9852 140.055 30.9852 140.055C41.093 140.723 46.3969 150.405 46.3969 150.405C55.3432 165.761 69.7592 161.422 75.5588 158.751C76.3865 152.24 79.0394 147.733 81.8563 145.23C59.6514 142.893 36.2891 134.213 36.2891 95.4836C36.2891 84.4662 40.2634 75.4523 46.5608 68.442C45.5672 65.9386 42.0866 55.587 47.5564 41.7322C47.5564 41.7322 56.0069 39.0608 75.061 52.0818C83.2188 49.8747 91.6317 48.752 100.083 48.7425C108.533 48.7425 117.148 49.9123 125.102 52.0818C144.159 39.0608 152.609 41.7322 152.609 41.7322C158.079 55.587 154.596 65.9386 153.603 68.442C160.066 75.4523 163.876 84.4662 163.876 95.4836C163.876 134.213 140.514 142.725 118.143 145.23C121.79 148.401 124.936 154.41 124.936 163.926C124.936 177.446 124.773 188.298 124.773 191.635C124.773 194.306 126.596 197.48 131.566 196.478C171.333 183.121 200 145.396 200 100.826C200.163 45.0694 155.26 0 100.083 0Z" fill="white"/>
</svg>
